# This file uses centimeters as units for non-parametric coordinates.

mtllib monitor_CRT.mtl
g default
v -20.525764 17.753807 13.849555
v 20.525764 17.753807 13.849555
v -20.525764 48.542454 13.849555
v 20.525764 48.542454 13.849555
v -25.299999 53.448147 13.482330
v 25.299999 53.448147 13.482330
v 23.620857 51.869778 -1.450445
v -23.620857 51.869778 -1.450445
v 23.620857 7.463369 -1.450445
v -23.620857 7.463369 -1.450445
v 25.299999 5.885002 13.482330
v -25.299999 5.885002 13.482330
v -16.554934 45.311371 -10.700482
v 16.554934 45.311371 -10.700482
v 16.554934 11.876451 -10.700482
v -16.554934 11.876451 -10.700482
v -12.026413 40.971191 -37.590336
v 12.026413 40.971191 -37.590336
v 12.026413 18.361958 -37.590336
v -12.026413 18.361958 -37.590336
v -13.386013 42.754723 -23.615948
v 13.386013 42.754723 -23.615948
v 13.386013 16.934771 -23.615948
v -13.386013 16.934771 -23.615948
v -19.553066 6.917349 -1.450445
v 19.553066 6.917349 -1.450445
v -12.639184 11.167347 -9.133292
v 12.639184 11.167347 -9.133292
v 9.229865 16.742790 -22.976303
v -9.229865 16.742790 -22.976303
v -8.213299 17.935236 -33.412071
v 8.213299 17.935236 -33.412071
v -12.639184 7.928944 -9.133292
v 12.639184 7.928944 -9.133292
v 9.229865 9.491268 -22.976303
v -9.229865 9.491268 -22.976303
v -8.213299 10.707609 -33.412071
v 8.213299 10.707609 -33.412071
v -20.525764 17.753807 10.286909
v 20.525764 17.753807 10.286909
v 20.525764 48.542454 10.286909
v -20.525764 48.542454 10.286909
v 0.000000 53.448147 15.450289
v 0.000000 5.885002 15.450289
v 0.000000 17.753807 15.450289
v 0.000000 17.753807 13.349931
v 0.000000 48.542454 13.349931
v 0.000000 48.542454 15.450289
v -6.175364 17.038557 -33.412071
v -6.175364 11.604294 -33.412071
v 6.175364 17.038557 -33.412071
v 6.175364 11.604294 -33.412071
v 0.000000 8.625391 15.450289
v -20.525764 8.625396 13.849555
v 20.526173 8.528952 13.854757
vt -0.000000 0.004736
vt 0.500000 0.004736
vt 1.000000 0.004736
vt 1.000000 0.995264
vt 0.500000 0.995264
vt -0.000000 0.995264
vt 0.997241 0.677571
vt 0.889892 0.689693
vt 0.889892 0.450996
vt 0.997241 0.463118
vt 0.888319 0.690979
vt 0.888319 0.449709
vt 0.744305 0.882110
vt 0.744305 0.921709
vt 0.654306 0.921709
vt 0.654306 0.882110
vt 0.088229 0.576793
vt 0.088218 0.415672
vt 0.020923 0.415675
vt 0.021692 0.576794
vt 0.021685 0.737935
vt 0.088203 0.737922
vt 0.381705 0.374157
vt 0.393206 0.265342
vt 0.716794 0.265342
vt 0.728295 0.374157
vt 0.425364 0.197937
vt 0.669003 0.197937
vt 0.462224 0.103823
vt 0.650373 0.103823
vt 0.472624 0.001992
vt 0.637376 0.001992
vt 0.368206 0.498195
vt 0.356705 0.389381
vt 0.703295 0.389381
vt 0.691794 0.498195
vt 0.644003 0.565600
vt 0.400364 0.565600
vt 0.625373 0.659714
vt 0.437224 0.659714
vt 0.612376 0.761545
vt 0.447624 0.761545
vt 0.835200 0.919554
vt 0.759155 0.928243
vt 0.759155 0.875576
vt 0.835200 0.866712
vt 0.936074 0.878926
vt 0.936074 0.855328
vt 0.992058 0.847956
vt 0.639455 0.928243
vt 0.563410 0.919553
vt 0.563411 0.866711
vt 0.639455 0.875576
vt 0.462537 0.878924
vt 0.462537 0.855326
vt 0.406553 0.847954
vt 0.804510 0.087125
vt 0.804510 0.311481
vt 0.778549 0.311481
vt 0.778549 0.087125
vt 0.811284 0.311481
vt 0.811284 0.087125
vt 0.837245 0.087125
vt 0.837245 0.311481
vt 0.820914 0.742468
vt 0.697759 0.570344
vt 0.820914 0.398220
vt 0.712100 0.754704
vt 0.712100 0.385984
vt 0.043846 0.265342
vt 0.094227 0.209357
vt 0.278430 0.209357
vt 0.328811 0.265342
vt 0.119071 0.108484
vt 0.253586 0.108484
vt 0.186328 0.388497
vt 0.126478 0.032439
vt 0.246178 0.032439
vt 0.001968 0.374157
vt 0.370689 0.374157
vt 0.014204 0.265342
vt 0.358453 0.265342
vt 0.065693 0.197937
vt 0.094227 0.209357
vt 0.306964 0.197937
vt 0.278430 0.209357
vt 0.088785 0.103823
vt 0.119071 0.108484
vt 0.283872 0.103823
vt 0.253586 0.108484
vt 0.098692 0.001992
vt 0.126478 0.032439
vt 0.273964 0.001992
vt 0.246178 0.032439
vt 0.933220 0.334854
vt 0.921555 0.185284
vt 0.936861 0.185284
vt 0.959181 0.334854
vt 0.933220 0.035713
vt 0.959181 0.035713
vt 0.915494 0.185284
vt 0.903829 0.334854
vt 0.877868 0.334854
vt 0.900188 0.185284
vt 0.903829 0.035713
vt 0.877868 0.035713
vt 0.248016 0.960086
vt 0.083263 0.960086
vt 0.083263 0.784813
vt 0.248016 0.784813
vt 0.312548 0.726372
vt 0.312548 0.576801
vt 0.348296 0.576801
vt 0.348296 0.761161
vt 0.312548 0.427230
vt 0.348296 0.392441
vt 0.001705 0.761161
vt 0.001705 0.392441
vt 0.001705 0.576801
vn 0.000000 0.995667 -0.092986
vn 0.000000 0.995667 -0.092986
vn 0.000000 0.995667 -0.092986
vn 0.000000 0.000000 -1.000000
vn 0.000000 0.000000 -1.000000
vn 0.000000 0.000000 -1.000000
vn 0.000000 0.000000 -1.000000
vn 0.993737 0.000000 -0.111743
vn 0.993737 0.000000 -0.111743
vn 0.993737 0.000000 -0.111743
vn 0.993737 0.000000 -0.111743
vn -0.993737 0.000000 -0.111743
vn -0.993737 0.000000 -0.111743
vn -0.993737 0.000000 -0.111743
vn -0.993737 0.000000 -0.111743
vn -0.077640 -0.000464 0.996981
vn -0.077640 -0.000464 0.996981
vn -0.077640 -0.000464 0.996981
vn -0.077640 -0.000464 0.996981
vn -0.077751 0.000000 0.996973
vn -0.077751 0.000000 0.996973
vn -0.077751 0.000000 0.996973
vn -0.077751 0.000000 0.996973
vn 0.076692 0.000000 0.997055
vn 0.076692 0.000000 0.997055
vn 0.076692 0.000000 0.997055
vn 0.076692 0.000000 0.997055
vn -0.076692 0.000000 0.997055
vn -0.076692 0.000000 0.997055
vn -0.076692 0.000000 0.997055
vn -0.076692 0.000000 0.997055
vn 0.000000 0.815762 -0.578387
vn 0.000000 0.815762 -0.578387
vn 0.000000 0.815762 -0.578387
vn 0.000000 0.815762 -0.578387
vn 0.794674 0.000000 -0.607036
vn 0.794674 0.000000 -0.607036
vn 0.794674 0.000000 -0.607036
vn 0.794674 0.000000 -0.607036
vn 0.000000 -0.991443 -0.130542
vn 0.000000 -0.991443 -0.130542
vn 0.000000 -0.991443 -0.130542
vn 0.000000 -0.991443 -0.130542
vn -0.794674 0.000000 -0.607036
vn -0.794674 0.000000 -0.607036
vn -0.794674 0.000000 -0.607036
vn -0.794674 0.000000 -0.607036
vn 0.000000 0.991954 -0.126601
vn 0.000000 0.991954 -0.126601
vn 0.000000 0.991954 -0.126601
vn 0.000000 0.991954 -0.126601
vn 0.995300 0.000000 -0.096835
vn 0.995300 0.000000 -0.096835
vn 0.995300 0.000000 -0.096835
vn 0.995300 0.000000 -0.096835
vn 0.000000 -0.993276 -0.115771
vn 0.000000 -0.993276 -0.115771
vn 0.000000 -0.993276 -0.115771
vn 0.000000 -0.993276 -0.115771
vn -0.995300 0.000000 -0.096835
vn -0.995300 0.000000 -0.096835
vn -0.995300 0.000000 -0.096835
vn -0.995300 0.000000 -0.096835
vn 0.000000 0.980965 -0.194184
vn 0.000000 0.980965 -0.194184
vn 0.000000 0.980965 -0.194184
vn 0.000000 0.980965 -0.194184
vn 0.971194 0.000000 -0.238291
vn 0.971194 0.000000 -0.238291
vn 0.971194 0.000000 -0.238291
vn 0.971194 0.000000 -0.238291
vn 0.000000 -0.993692 -0.112148
vn 0.000000 -0.993692 -0.112148
vn 0.000000 -0.993692 -0.112148
vn 0.000000 -0.993692 -0.112148
vn -0.971194 0.000000 -0.238291
vn -0.971194 0.000000 -0.238291
vn -0.971194 0.000000 -0.238291
vn -0.971194 0.000000 -0.238291
vn 0.132094 -0.984084 -0.118869
vn 0.132094 -0.984084 -0.118869
vn 0.132094 -0.984084 -0.118869
vn 0.005209 -0.997741 -0.066972
vn 0.005209 -0.997741 -0.066972
vn 0.005209 -0.997741 -0.066972
vn -0.132094 -0.984084 -0.118869
vn -0.132094 -0.984084 -0.118869
vn -0.132094 -0.984084 -0.118869
vn -0.042741 -0.874692 -0.482791
vn -0.042741 -0.874692 -0.482791
vn -0.042741 -0.874692 -0.482791
vn -0.042741 -0.874692 -0.482791
vn 0.042741 -0.874692 -0.482791
vn 0.042741 -0.874692 -0.482791
vn 0.042741 -0.874692 -0.482791
vn 0.042741 -0.874692 -0.482791
vn -0.011976 -0.994095 -0.107850
vn -0.011976 -0.994095 -0.107850
vn -0.011976 -0.994095 -0.107850
vn -0.011976 -0.994095 -0.107850
vn 0.000000 -0.994825 -0.101601
vn 0.000000 -0.994825 -0.101601
vn 0.000000 -0.994825 -0.101601
vn 0.000000 -0.994825 -0.101601
vn 0.011976 -0.994095 -0.107850
vn 0.011976 -0.994095 -0.107850
vn 0.011976 -0.994095 -0.107850
vn 0.011976 -0.994095 -0.107850
vn -0.002599 -0.929086 -0.369856
vn -0.002599 -0.929086 -0.369856
vn -0.002599 -0.929086 -0.369856
vn -0.002599 -0.929086 -0.369856
vn 0.002599 -0.929086 -0.369855
vn 0.002599 -0.929086 -0.369855
vn 0.002599 -0.929086 -0.369855
vn 0.002599 -0.929086 -0.369855
vn -0.743327 0.000000 -0.668928
vn -0.743327 0.000000 -0.668928
vn -0.743327 0.000000 -0.668928
vn 0.743327 0.000000 -0.668928
vn 0.743327 0.000000 -0.668928
vn 0.743327 0.000000 -0.668928
vn -0.995289 0.000000 -0.096953
vn -0.995289 0.000000 -0.096953
vn -0.995289 0.000000 -0.096953
vn -0.995289 0.000000 -0.096953
vn 0.000000 0.000000 -1.000000
vn 0.000000 0.000000 -1.000000
vn 0.000000 0.000000 -1.000000
vn 0.000000 0.000000 -1.000000
vn 0.995289 0.000000 -0.096953
vn 0.995289 0.000000 -0.096953
vn 0.995289 0.000000 -0.096953
vn 0.995289 0.000000 -0.096953
vn -0.970985 0.000000 -0.239139
vn -0.970985 0.000000 -0.239139
vn -0.970985 0.000000 -0.239139
vn -0.970985 0.000000 -0.239139
vn 0.970985 0.000000 -0.239139
vn 0.970985 0.000000 -0.239139
vn 0.970985 0.000000 -0.239139
vn 0.970985 0.000000 -0.239139
vn 0.000000 1.000000 0.000000
vn 0.000000 1.000000 0.000000
vn 0.000000 1.000000 0.000000
vn 0.000000 1.000000 0.000000
vn -1.000000 0.000000 0.000000
vn -1.000000 0.000000 0.000000
vn -1.000000 0.000000 0.000000
vn -1.000000 0.000000 0.000000
vn 0.000000 -1.000000 0.000000
vn 0.000000 -1.000000 0.000000
vn 0.000000 -1.000000 0.000000
vn 0.000000 -1.000000 0.000000
vn 1.000000 0.000000 0.000000
vn 1.000000 0.000000 0.000000
vn 1.000000 0.000000 0.000000
vn 1.000000 0.000000 0.000000
vn -0.147594 0.000000 0.989048
vn -0.147594 0.000000 0.989048
vn -0.147594 0.000000 0.989048
vn -0.147594 0.000000 0.989048
vn -0.005209 -0.997741 -0.066972
vn -0.005209 -0.997741 -0.066972
vn -0.005209 -0.997741 -0.066972
vn 0.078089 0.000566 0.996946
vn 0.078089 0.000566 0.996946
vn 0.078089 0.000566 0.996946
vn 0.000000 1.000000 0.000000
vn 0.000000 1.000000 0.000000
vn 0.000000 1.000000 0.000000
vn 0.000000 1.000000 0.000000
vn 0.147594 0.000000 0.989048
vn 0.147594 0.000000 0.989048
vn 0.147594 0.000000 0.989048
vn 0.147594 0.000000 0.989048
vn 0.000000 -1.000000 0.000000
vn 0.000000 -1.000000 0.000000
vn 0.000000 -1.000000 0.000000
vn 0.000000 -1.000000 0.000000
vn 0.077640 -0.000464 0.996981
vn 0.077640 -0.000464 0.996981
vn 0.077640 -0.000464 0.996981
vn 0.077640 -0.000464 0.996981
vn 0.008106 0.994523 -0.104208
vn 0.008106 0.994523 -0.104208
vn 0.008106 0.994523 -0.104208
vn -0.008106 0.994523 -0.104208
vn -0.008106 0.994523 -0.104208
vn -0.008106 0.994523 -0.104208
vn 0.000000 -0.998140 -0.060969
vn 0.000000 -0.998140 -0.060969
vn 0.000000 -0.998140 -0.060969
vn -0.000001 0.000000 -1.000000
vn -0.000001 0.000000 -1.000000
vn -0.000001 0.000000 -1.000000
vn -0.000001 0.000000 -1.000000
vn 0.000000 0.000000 -1.000000
vn 0.000000 0.000000 -1.000000
vn 0.000000 0.000000 -1.000000
vn 0.000000 0.000000 -1.000000
vn 0.000001 0.000000 -1.000000
vn 0.000001 0.000000 -1.000000
vn 0.000001 0.000000 -1.000000
vn 0.000001 0.000000 -1.000000
vn 0.000000 0.000000 -1.000000
vn 0.000000 0.000000 -1.000000
vn 0.000000 0.000000 -1.000000
vn 0.000000 0.000000 -1.000000
vn -0.077640 0.000831 0.996981
vn -0.077640 0.000831 0.996981
vn -0.077640 0.000831 0.996981
vn -0.077640 0.000831 0.996981
vn 0.077625 0.000284 0.996983
vn 0.077625 0.000284 0.996983
vn 0.077625 0.000284 0.996983
vn 0.077625 0.000284 0.996983
vn 0.077527 -0.000224 0.996990
vn 0.077527 -0.000224 0.996990
vn 0.077527 -0.000224 0.996990
vn 0.077527 -0.000224 0.996990
vn -0.076691 0.000000 0.997055
vn -0.076691 0.000000 0.997055
vn -0.076691 0.000000 0.997055
s off
g Monitor_CRT
f 8/65/1 43/66/2 7/67/3
f 20/107/4 17/108/5 18/109/6 19/110/7
f 11/23/8 9/24/9 7/25/10 6/26/11
f 10/33/12 12/34/13 5/35/14 8/36/15
f 3/111/16 48/112/17 43/113/18 5/114/19
f 45/17/20 1/22/21 54/21/22 53/20/23
f 4/115/24 2/18/25 11/118/26 6/116/27
f 1/22/28 3/111/29 5/114/30 12/117/31
f 13/11/32 8/65/33 7/67/34 14/12/35
f 7/25/36 9/24/37 15/27/38 14/28/39
f 25/70/40 33/71/41 34/72/42 26/73/43
f 10/33/44 8/36/45 13/37/46 16/38/47
f 17/7/48 21/8/49 22/9/50 18/10/51
f 22/30/52 23/29/53 19/31/54 18/32/55
f 36/74/56 37/77/57 38/78/58 35/75/59
f 24/40/60 21/39/61 17/41/62 20/42/63
f 21/8/64 13/11/65 14/12/66 22/9/67
f 14/28/68 15/27/69 23/29/70 22/30/71
f 33/71/72 36/74/73 35/75/74 34/72/75
f 16/38/76 13/37/77 21/39/78 24/40/79
f 9/82/80 11/80/81 26/73/82
f 44/76/83 12/79/84 25/70/85
f 12/79/86 10/81/87 25/70/88
f 10/81/89 16/83/90 27/84/91 25/70/92
f 15/85/93 9/82/94 26/73/95 28/86/96
f 24/87/97 20/91/98 31/92/99 30/88/100
f 31/92/101 20/91/102 19/93/103 32/94/104
f 19/93/105 23/89/106 29/90/107 32/94/108
f 16/83/109 24/87/110 30/88/111 27/84/112
f 23/89/113 15/85/114 28/86/115 29/90/116
f 25/49/117 27/47/118 33/48/119
f 28/54/120 26/56/121 34/55/122
f 30/43/123 31/44/124 37/45/125 36/46/126
f 50/13/127 49/14/128 51/15/129 52/16/130
f 32/50/131 29/51/132 35/52/133 38/53/134
f 27/47/135 30/43/136 36/46/137 33/48/138
f 29/51/139 28/54/140 34/55/141 35/52/142
f 1/95/143 45/96/144 46/97/145 39/98/146
f 2/57/147 4/58/148 41/59/149 40/60/150
f 48/101/151 3/102/152 42/103/153 47/104/154
f 3/61/155 1/62/156 39/63/157 42/64/158
f 46/2/159 47/5/160 42/6/161 39/1/162
f 11/80/163 44/76/164 26/73/165
f 2/18/166 55/19/167 11/118/168
f 46/97/169 45/96/170 2/99/171 40/100/172
f 46/2/173 40/3/174 41/4/175 47/5/176
f 4/105/177 48/101/178 47/104/179 41/106/180
f 43/113/181 48/112/182 4/115/183 6/116/184
f 5/68/185 43/66/186 8/65/187
f 43/66/188 6/69/189 7/67/190
f 44/76/191 25/70/192 26/73/193
f 37/45/194 31/44/195 49/14/196 50/13/197
f 31/44/198 32/50/199 51/15/200 49/14/201
f 32/50/202 38/53/203 52/16/204 51/15/205
f 38/53/206 37/45/207 50/13/208 52/16/209
f 53/20/210 54/21/211 12/117/212 44/119/213
f 2/18/214 45/17/215 53/20/216 55/19/217
f 11/118/218 55/19/219 53/20/220 44/119/221
f 12/117/222 54/21/223 1/22/224
