# This file uses centimeters as units for non-parametric coordinates.

mtllib hemisphere.mtl
g default
v 0.653284 -0.117336 -0.653284
v 0.000000 -0.117336 -0.923883
v -0.653284 -0.117336 -0.653284
v -0.923883 -0.117336 0.000000
v -0.653284 -0.117336 0.653284
v 0.000000 -0.117336 0.923883
v 0.653284 -0.117336 0.653284
v 0.923883 -0.117336 0.000000
v 0.500000 0.207107 -0.500000
v 0.000000 0.207107 -0.707107
v -0.500000 0.207107 -0.500000
v -0.707107 0.207107 0.000000
v -0.500000 0.207107 0.500000
v 0.000000 0.207107 0.707107
v 0.500000 0.207107 0.500000
v 0.707107 0.207107 0.000000
v 0.270598 0.423880 -0.270598
v 0.000000 0.423880 -0.382683
v -0.270598 0.423880 -0.270598
v -0.382683 0.423880 0.000000
v -0.270598 0.423880 0.270598
v 0.000000 0.423880 0.382683
v 0.270598 0.423880 0.270598
v 0.382683 0.423880 0.000000
v 0.000000 0.500000 0.000000
v 0.000000 -0.500000 0.000000
v 0.707107 -0.500000 -0.707107
v 0.409339 -0.500000 -0.409339
v 0.000000 -0.500000 -1.000000
v 0.000000 -0.500000 -0.578892
v -0.707107 -0.500000 -0.707107
v -0.409339 -0.500000 -0.409339
v -1.000000 -0.500000 0.000000
v -0.578892 -0.500000 0.000000
v -0.707107 -0.500000 0.707107
v -0.409339 -0.500000 0.409339
v -0.000000 -0.500000 1.000000
v 0.000000 -0.500000 0.578892
v 0.707107 -0.500000 0.707107
v 0.409339 -0.500000 0.409339
v 1.000000 -0.500000 0.000000
v 0.578892 -0.500000 0.000000
vt 1.000000 0.624994
vt 0.000000 0.750000
vt 0.125000 0.750000
vt 0.250000 0.750000
vt 0.375000 0.750000
vt 0.500000 0.750000
vt 0.625000 0.750000
vt 0.750000 0.750000
vt 0.875000 0.750000
vt 1.000000 0.750000
vt 0.000000 0.875000
vt 0.125000 0.875000
vt 0.250000 0.875000
vt 0.375000 0.875000
vt 0.500000 0.875000
vt 0.625000 0.875000
vt 0.750000 0.875000
vt 0.875000 0.875000
vt 1.000000 0.875000
vt 0.062500 1.000000
vt 0.187500 1.000000
vt 0.312500 1.000000
vt 0.437500 1.000000
vt 0.562500 1.000000
vt 0.687500 1.000000
vt 0.812500 1.000000
vt 0.937500 1.000000
vt 0.125000 0.624994
vt 0.000000 0.624994
vt 0.250000 0.624994
vt 0.375000 0.624994
vt 0.500000 0.624994
vt 0.625000 0.624994
vt 0.750000 0.624994
vt 0.875000 0.624994
vt 0.532915 0.500000
vt 0.605277 0.500000
vt 0.388192 0.500000
vt 0.822361 0.500000
vt 0.894723 0.500000
vt 0.750000 0.500000
vt 0.677638 0.500000
vt 0.750000 0.500000
vt 0.460554 0.500000
vt 1.000000 0.500000
vt 0.000000 0.500000
vt 0.125000 0.500000
vt 0.250000 0.500000
vt 0.375000 0.500000
vt 0.500000 0.500000
vt 0.625000 0.500000
vt 0.750000 0.500000
vt 0.875000 0.500000
vn 0.361751 0.326199 -0.873344
vn 0.361751 0.326199 -0.873344
vn 0.325638 0.525274 -0.786160
vn 0.325638 0.525274 -0.786160
vn -0.361751 0.326199 -0.873344
vn -0.361751 0.326199 -0.873344
vn -0.325638 0.525274 -0.786160
vn -0.325638 0.525274 -0.786160
vn -0.873344 0.326199 -0.361751
vn -0.873344 0.326199 -0.361751
vn -0.786160 0.525274 -0.325638
vn -0.786160 0.525274 -0.325638
vn -0.873344 0.326199 0.361751
vn -0.873344 0.326199 0.361751
vn -0.786160 0.525274 0.325638
vn -0.786160 0.525274 0.325638
vn -0.361751 0.326199 0.873344
vn -0.361751 0.326199 0.873344
vn -0.325638 0.525274 0.786160
vn -0.325638 0.525274 0.786160
vn 0.361751 0.326199 0.873344
vn 0.361751 0.326199 0.873344
vn 0.325638 0.525274 0.786160
vn 0.325638 0.525274 0.786160
vn 0.873344 0.326199 0.361751
vn 0.873344 0.326199 0.361751
vn 0.786160 0.525274 0.325638
vn 0.786160 0.525274 0.325638
vn 0.873344 0.326199 -0.361751
vn 0.873344 0.326199 -0.361751
vn 0.786160 0.525273 -0.325638
vn 0.786160 0.525273 -0.325638
vn 0.224263 0.810291 -0.541419
vn 0.224263 0.810291 -0.541419
vn 0.224263 0.810291 -0.541419
vn 0.224263 0.810291 -0.541419
vn -0.224263 0.810291 -0.541419
vn -0.224263 0.810291 -0.541419
vn -0.224263 0.810291 -0.541419
vn -0.224263 0.810291 -0.541419
vn -0.541419 0.810291 -0.224263
vn -0.541419 0.810291 -0.224263
vn -0.541419 0.810291 -0.224263
vn -0.541419 0.810291 -0.224263
vn -0.541419 0.810291 0.224263
vn -0.541419 0.810291 0.224263
vn -0.541419 0.810291 0.224263
vn -0.541419 0.810291 0.224263
vn -0.224263 0.810291 0.541419
vn -0.224263 0.810291 0.541419
vn -0.224263 0.810291 0.541419
vn -0.224263 0.810291 0.541419
vn 0.224263 0.810291 0.541419
vn 0.224263 0.810291 0.541419
vn 0.224263 0.810291 0.541419
vn 0.224263 0.810291 0.541419
vn 0.541419 0.810291 0.224263
vn 0.541419 0.810291 0.224263
vn 0.541419 0.810291 0.224263
vn 0.541419 0.810291 0.224263
vn 0.541419 0.810291 -0.224263
vn 0.541419 0.810291 -0.224263
vn 0.541419 0.810291 -0.224263
vn 0.541419 0.810291 -0.224263
vn 0.080546 0.977599 -0.194457
vn 0.080547 0.977599 -0.194457
vn 0.080547 0.977599 -0.194457
vn -0.080547 0.977599 -0.194457
vn -0.080546 0.977599 -0.194457
vn -0.080547 0.977599 -0.194457
vn -0.194457 0.977599 -0.080546
vn -0.194457 0.977599 -0.080546
vn -0.194457 0.977599 -0.080546
vn -0.194457 0.977599 0.080546
vn -0.194457 0.977599 0.080546
vn -0.194457 0.977599 0.080546
vn -0.080547 0.977599 0.194457
vn -0.080547 0.977599 0.194457
vn -0.080547 0.977599 0.194457
vn 0.080547 0.977599 0.194457
vn 0.080547 0.977599 0.194457
vn 0.080547 0.977599 0.194457
vn 0.194457 0.977599 0.080546
vn 0.194457 0.977599 0.080546
vn 0.194457 0.977599 0.080546
vn 0.194457 0.977599 -0.080546
vn 0.194457 0.977599 -0.080546
vn 0.194457 0.977599 -0.080546
vn 0.000000 -1.000000 -0.000000
vn 0.000000 -1.000000 0.000000
vn 0.000000 -1.000000 -0.000000
vn 0.000000 -1.000000 0.000000
vn 0.000000 -1.000000 0.000000
vn 0.000000 -1.000000 0.000000
vn 0.000000 -1.000000 0.000000
vn 0.000000 -1.000000 0.000000
vn 0.000000 -1.000000 0.000000
vn 0.376381 0.180744 -0.908663
vn 0.376381 0.180744 -0.908663
vn 0.000000 -1.000000 0.000000
vn 0.000000 -1.000000 0.000000
vn -0.376381 0.180744 -0.908663
vn -0.376381 0.180744 -0.908663
vn 0.000000 -1.000000 0.000000
vn -0.908663 0.180744 -0.376381
vn -0.908663 0.180744 -0.376381
vn 0.000000 -1.000000 -0.000000
vn -0.908663 0.180744 0.376381
vn -0.908663 0.180744 0.376381
vn 0.000000 -1.000000 -0.000000
vn -0.376381 0.180744 0.908663
vn -0.376381 0.180744 0.908663
vn 0.000000 -1.000000 0.000000
vn 0.376381 0.180744 0.908663
vn 0.376381 0.180744 0.908663
vn 0.000000 -1.000000 0.000000
vn 0.908663 0.180745 0.376381
vn 0.908663 0.180745 0.376381
vn 0.000000 -1.000000 0.000000
vn 0.908663 0.180745 -0.376381
vn 0.908663 0.180745 -0.376381
s 1
g hemisphere
usemtl initialShadingGroup
f 1/29/1 2/28/2 10/3/3 9/2/4
s 2
f 2/28/5 3/30/6 11/4/7 10/3/8
s 3
f 3/30/9 4/31/10 12/5/11 11/4/12
s 4
f 4/31/13 5/32/14 13/6/15 12/5/16
s 5
f 5/32/17 6/33/18 14/7/19 13/6/20
s 6
f 6/33/21 7/34/22 15/8/23 14/7/24
s 7
f 7/34/25 8/35/26 16/9/27 15/8/28
s 8
f 8/35/29 1/1/30 9/10/31 16/9/32
s off
f 9/2/33 10/3/34 18/12/35 17/11/36
f 10/3/37 11/4/38 19/13/39 18/12/40
f 11/4/41 12/5/42 20/14/43 19/13/44
f 12/5/45 13/6/46 21/15/47 20/14/48
f 13/6/49 14/7/50 22/16/51 21/15/52
f 14/7/53 15/8/54 23/17/55 22/16/56
f 15/8/57 16/9/58 24/18/59 23/17/60
f 16/9/61 9/10/62 17/19/63 24/18/64
f 17/11/65 18/12/66 25/20/67
f 18/12/68 19/13/69 25/21/70
f 19/13/71 20/14/72 25/22/73
f 20/14/74 21/15/75 25/23/76
f 21/15/77 22/16/78 25/24/79
f 22/16/80 23/17/81 25/25/82
f 23/17/83 24/18/84 25/26/85
f 24/18/86 17/19/87 25/27/88
s 9
f 34/36/89 26/43/90 36/37/91
f 36/37/91 26/43/90 38/42/92
f 30/38/93 26/43/90 32/44/94
f 42/39/95 26/43/90 28/40/96
f 30/38/93 28/40/96 26/43/90
f 40/41/97 26/43/90 42/39/95
f 38/42/92 26/43/90 40/41/97
f 32/44/94 26/43/90 34/36/89
s 1
f 1/29/1 27/46/98 29/47/99 2/28/2
s 9
f 27/45/100 28/40/96 30/38/93 29/47/101
s 2
f 2/28/5 29/47/102 31/48/103 3/30/6
s 9
f 29/47/101 30/38/93 32/44/94 31/48/104
s 3
f 3/30/9 31/48/105 33/49/106 4/31/10
s 9
f 31/48/104 32/44/94 34/36/89 33/49/107
s 4
f 4/31/13 33/49/108 35/50/109 5/32/14
s 9
f 33/49/107 34/36/89 36/37/91 35/50/110
s 5
f 5/32/17 35/50/111 37/51/112 6/33/18
s 9
f 35/50/110 36/37/91 38/42/92 37/51/113
s 6
f 6/33/21 37/51/114 39/52/115 7/34/22
s 9
f 37/51/113 38/42/92 40/41/97 39/52/116
s 7
f 7/34/25 39/52/117 41/53/118 8/35/26
s 9
f 39/52/116 40/41/97 42/39/95 41/53/119
f 28/40/96 27/45/100 41/53/119 42/39/95
s 8
f 27/45/120 1/1/30 8/35/29 41/53/121
