# This file uses centimeters as units for non-parametric coordinates.

mtllib pyramid.mtl
g default
v 0.000000 0.500000 0.000000
v 0.000000 -0.500000 -0.000000
v -0.500000 -0.500000 0.500000
v -0.276416 -0.052831 0.276416
v 0.000000 -0.052831 0.276416
v 0.000000 -0.500000 0.500000
v 0.276416 -0.052831 0.276416
v 0.500000 -0.500000 0.500000
v -0.276416 -0.052831 -0.276416
v -0.500000 -0.500000 -0.500000
v 0.000000 -0.052831 -0.276416
v 0.000000 -0.500000 -0.500000
v 0.500000 -0.500000 -0.500000
v 0.276416 -0.052831 -0.276416
v -0.500000 -0.500000 0.000000
v -0.276416 -0.052831 0.000000
v 0.500000 -0.500000 0.000000
v 0.276416 -0.052831 0.000000
vt 0.223584 0.776415
vt 0.000000 1.000000
vt 0.000000 0.500000
vt 0.223584 0.500000
vt 0.500000 0.500000
vt 1.000000 0.500000
vt 1.000000 -0.000000
vt 0.776416 0.500000
vt 0.776416 0.223584
vt 0.500000 0.500000
vt 0.223584 0.223584
vt 0.776416 0.776415
vt 0.500000 0.223584
vt 0.500000 0.776415
vt 0.500000 1.000000
vt 0.000000 0.000000
vt 1.000000 1.000000
vt 0.500000 -0.000000
vn 0.000000 0.447214 0.894427
vn 0.000000 0.447214 0.894427
vn 0.000000 0.447214 0.894427
vn 0.000000 0.447214 0.894427
vn 0.000000 -1.000000 0.000000
vn 0.000000 -1.000000 0.000000
vn 0.000000 -1.000000 0.000000
vn 0.000000 -1.000000 0.000000
vn 0.000000 -1.000000 0.000000
vn 0.000000 0.447214 -0.894427
vn 0.000000 0.447214 -0.894427
vn 0.000000 0.447214 -0.894427
vn 0.000000 0.447214 -0.894427
vn 0.000000 0.447214 0.894427
vn 0.000000 0.447214 0.894427
vn 0.000000 0.447214 -0.894427
vn 0.000000 0.447214 -0.894427
vn 0.894427 0.447214 0.000000
vn 0.894427 0.447214 0.000000
vn 0.894427 0.447214 0.000000
vn 0.894427 0.447214 0.000000
vn -0.894427 0.447214 0.000000
vn -0.894427 0.447214 0.000000
vn -0.894427 0.447214 0.000000
vn -0.894427 0.447214 0.000000
vn 0.000000 -1.000000 0.000000
vn -0.894427 0.447214 0.000000
vn -0.894427 0.447214 0.000000
vn 0.000000 0.447214 0.894427
vn 0.000000 -1.000000 0.000000
vn 0.000000 -1.000000 0.000000
vn 0.000000 0.447214 -0.894427
vn 0.000000 -1.000000 0.000000
vn 0.894427 0.447214 0.000000
vn 0.894427 0.447214 0.000000
vn -0.894427 0.447214 0.000000
vn 0.894427 0.447214 0.000000
s 1
g pyramid
usemtl initialShadingGroup
f 4/1/1 3/2/2 6/3/3 5/4/4
s 2
f 3/2/5 2/5/6 6/3/7
f 2/5/6 12/6/8 13/7/9
s 4
f 12/6/10 11/8/11 14/9/12 13/7/13
s 1
f 4/1/1 5/4/4 1/10/14
f 5/4/4 7/11/15 1/10/14
s 4
f 1/10/16 11/8/11 9/12/17
f 1/10/16 14/9/12 11/8/11
s 5
f 18/13/18 14/9/19 1/10/20
f 7/11/21 18/13/18 1/10/20
s 6
f 9/12/22 16/14/23 1/10/24
f 16/14/23 4/1/25 1/10/24
s 2
f 2/5/6 3/2/5 15/15/26
s 6
f 3/2/27 4/1/25 16/14/23 15/15/28
s 1
f 5/4/4 6/3/3 8/16/29 7/11/15
s 2
f 6/3/7 2/5/6 8/16/30
f 2/5/6 10/17/31 12/6/8
s 4
f 10/17/32 9/12/17 11/8/11 12/6/10
s 2
f 2/5/6 13/7/9 17/18/33
s 5
f 13/7/34 14/9/19 18/13/18 17/18/35
s 6
f 9/12/22 10/17/36 15/15/28 16/14/23
s 2
f 10/17/31 2/5/6 15/15/26
s 5
f 7/11/21 8/16/37 17/18/35 18/13/18
s 2
f 8/16/30 2/5/6 17/18/33
